<?xml version="1.0" encoding="utf-8"?>
<!-- Generator: Adobe Illustrator 27.4.0, SVG Export Plug-In . SVG Version: 6.00 Build 0)  -->
<svg version="1.1" id="Calque_1" xmlns="http://www.w3.org/2000/svg" xmlns:xlink="http://www.w3.org/1999/xlink" x="0px" y="0px"
	 viewBox="0 0 300 209.3" style="enable-background:new 0 0 300 209.3;" xml:space="preserve">
<style type="text/css">
	.st0{fill:#020122;}
	.st1{fill:url(#SVGID_1_);}
	.st2{fill:#271941;}
	.st3{fill:#FFEDE0;}
	.st4{fill:#DACCAA;}
	.st5{fill:url(#SVGID_00000078044262723875855820000012779802934211202203_);}
	.st6{fill:#222222;}
	.st7{fill:#E15236;}
	.st8{fill:url(#SVGID_00000125599411198108999750000012298648646147593394_);}
	.st9{fill:url(#SVGID_00000101823975652845296320000005958310744099177382_);}
	.st10{fill:#FFFFFF;}
	.st11{fill:#DACCAA;stroke:#DACCAA;stroke-width:0.3013;stroke-miterlimit:10;}
	.st12{fill:none;stroke:#32FF17;stroke-width:0.3165;stroke-miterlimit:10;}
	.st13{fill:url(#SVGID_00000166661238009106108040000016291627215682918802_);}
	.st14{fill:url(#SVGID_00000130620676468708976150000002680512844750526629_);}
	.st15{fill:#FFEDE0;stroke:#FFFFFF;stroke-width:7.260578e-02;stroke-miterlimit:10;}
	.st16{fill:#2A130A;stroke:#2A130A;stroke-width:0.3013;stroke-miterlimit:10;}
	.st17{fill:url(#SVGID_00000094602588519786596500000015004873895625304482_);}
	.st18{fill:url(#SVGID_00000159453210660863411090000017789667326027981471_);}
	.st19{fill:url(#SVGID_00000120554788734463631410000015529894981100441791_);}
	.st20{fill:url(#SVGID_00000001645357592778170270000009683875379573389954_);}
	.st21{fill:url(#SVGID_00000118370734632937864370000005299335190781887626_);}
	.st22{fill:url(#SVGID_00000036231677367677840940000007732301342432373438_);}
	.st23{fill:url(#SVGID_00000136379113215093357570000004922542639862899607_);}
	.st24{fill:url(#SVGID_00000148625952088027516960000000654976439716947350_);}
	.st25{opacity:0.5;fill:#F87B39;}
</style>
<g>
	<g>
		<g>
			<g>
				<g>
					<g>
						<path class="st0" d="M205.7,167.2H97.6v-4.1h108.1V167.2z"/>
					</g>
				</g>
				<linearGradient id="SVGID_1_" gradientUnits="userSpaceOnUse" x1="114.4951" y1="208.4421" x2="163.9861" y2="154.332">
					<stop  offset="0" style="stop-color:#F87B39"/>
					<stop  offset="1" style="stop-color:#E15236"/>
				</linearGradient>
				<path class="st1" d="M183.7,167c0,0-5.9,8.7-17.6,10.7c0,0-0.6,22.3-18.3,28.8c-8.8,3.3-18.6,1.2-25.7-5
					c-6.6-5.9-13.7-15.4-9.2-27.2c5.1-13.5,21.1-17.8,21.1-17.8s-1.5,10.5,3.3,14.7c4.9,4.1,4.5,0.8,4.1,0.5
					c-2.2-1.7-3.3-2.7-3.7-3.4c-0.8-1.2-0.8-1.2-0.7-1.5C137.6,165.2,183.7,167,183.7,167z"/>
				<path class="st2" d="M140,165.9l0.9,2.4c0.3,0.7,0.9,1.3,1.7,1.5l0.6,0.2c0.9,0.3,1.9,0.1,2.6-0.6l0.3-0.3
					c0.2-0.2,0.4-0.4,0.6-0.7l0.3-0.5c0.3-0.6,0.4-1.2,0.3-1.9l-0.1-0.2"/>
				<path class="st2" d="M149.9,165.8l1,2.5c0.3,0.7,0.9,1.3,1.7,1.5l0.6,0.2c0.9,0.3,1.9,0.1,2.6-0.6l0.3-0.3
					c0.2-0.2,0.4-0.4,0.6-0.7l0.3-0.5c0.3-0.6,0.4-1.2,0.3-1.9l-0.1-0.2"/>
				<polygon points="135.8,164.6 136,166.9 186.4,166.9 186.6,164.6 				"/>
				<path class="st3" d="M114,191.4c0,0-13.9-23.8,20.1-35.1c0,0-1.2,5,2,13.3c2.4,6.1-4.7,7.3-8.7,7.5c-1.6,0.1-3.1,1-3.9,2.5
					c-1.7,3.1-4,8.5-2.7,11.5C122.8,195.5,114,191.4,114,191.4z"/>
			</g>
			<g>
				<path class="st4" d="M141.8,84.6c0,0-4.3,3.7-1,7.9c3.2,4.2,28.2,0,28.2,0s1-8-2.8-10.4S141.8,84.6,141.8,84.6z"/>
				
					<linearGradient id="SVGID_00000005951877582844407380000014387891497272123536_" gradientUnits="userSpaceOnUse" x1="201.3508" y1="90.6682" x2="100.807" y2="20.9031">
					<stop  offset="0" style="stop-color:#F87B39"/>
					<stop  offset="0.9876" style="stop-color:#E15236"/>
				</linearGradient>
				<path style="fill:url(#SVGID_00000005951877582844407380000014387891497272123536_);" d="M157.9,22.2c0,0-0.6-14.7,6.8-18.6
					c7.2-3.8,24.2,35.1,24.8,36.7c0,0,0,0.1,0,0.1l0.1,0.2c0.1,0.1,0.1,0.2,0.1,0.3l-0.3,2.2c0,0,0,0,0,0.1c0,0.3,0,3.6,0.2,4.4
					c0,0.1,0,0.2,0,0.2c-0.2,0.8,3.2,6.7,3.3,6.9c1.1,1.7,3.4,7.4,3.4,7.4c0.8,1.1-3.4,4.7-4.2,5.8c0,0,0,0,0,0.1l-0.8,4.5
					c0,0-2.1,1.9-2.1,1.9c-0.3,0.5,2.3,2.1,2,2.4c-1,0.7,1.4,0.6,1.4,0.6c0,0-0.8,1,0.3,0.5c0.2-0.1,0.4,0,0.5,0.1l1.6,2.6
					c-1.1,0-0.2,1-0.2,1c0.3,0.6,4.8,7,1.5,13.4c-2.6,4.9-80.6,0.3-80.2,0c0.3-0.3,0.9-2.5,1-3c0-0.1,0-0.3-0.1-0.4l-0.6-0.6
					c-0.1-0.1-0.1-0.2-0.1-0.3c0-0.6,0.1-2.3,1.2-4.3c1.2-2.3-0.7-7.1-1-7.8c0-0.1,0-0.2,0-0.2l1-6.5c0.1-0.5-0.5-0.7-0.8-0.3l0,0
					c-0.3,0.4-0.9,0.1-0.8-0.4l2.1-6.4c0.1-0.3-0.1-0.5-0.4-0.6c-1.7-0.2-7-2.1-14.9-17.8c0,0,0,0,0-0.1c-0.3-0.7-5.3-15.5-1.8-19
					c0.1-0.1,0.2-0.1,0.3-0.1c0.6-0.1,2.8-0.2,4,0.8c1.4,1.2,8.6,1.3,8.6,1.3h6.7c0,0,0,0,0,0l4,0.4c0,0,0.1,0,0.1,0
					c0.4,0.2,2.8,1.3,2.7,2.9c-0.1,1.8,2.5-0.6,2.5-0.6c-1.1,0.9,6.4-4.8,11.8-6.5c1.8-0.6,15.1-3.4,16.1-3.2
					C158.7,22.4,157.9,22.2,157.9,22.2z"/>
				<path class="st3" d="M141,95.2c0,0-2.3-7.7,0.6-10.8c2.8-3.1,24.9-1.4,24.9-1.4s4.8,8.3,1.6,11.8C164.9,98.3,141,95.2,141,95.2z
					"/>
				<path class="st6" d="M201.3,75.3c0,0,1.1-0.5,1.3,0.6l0.9,0.2h0.7l1.4,0.6c0,0,0.6,0.4,0.7,0.8c0.1,0.4,0.2,1.3-0.2,1.6
					c-0.4,0.3-1.1,0.8-1.1,0.8l-1.2,0.4l-0.8,0l-0.2,0.4c0,0,0.4,0.5-0.9,0.5c-1.3,0-30.1,1.9-30.1,1.9l-30.5,1.8l-29,1.7
					c0,0-6.6,0.9-6.8,0.9c-0.2,0-0.8-0.2-0.8-0.2s-0.7-0.4-1.1-0.4c-0.4,0-1.4-0.1-1.4-0.1l-0.7-0.1l-4.3-1.4c0,0-0.6-0.4-0.8-0.5
					c-0.2-0.1-0.9-0.2-0.9-0.2s-0.4-0.4-0.1-0.6c0.3-0.2,1.1-0.2,1.3-0.4c0.2-0.2,0.1-0.4,0.5-0.5c0.4-0.2,1.4-0.7,1.4-0.7l6.7-2.5
					h1l34.9-1.6L201.3,75.3z"/>
				<path class="st7" d="M161.4,71.2c0-0.5-5.3-14,9.8-18c0,0,9.8-2.9,10.7,8.9l-2.4,1.4l-2.6,2.4l-1.8,1.2l-0.8,1.5l-3.5,0.8
					l-3.2,0.8l-2.9,1.5l-1.8,0.8l-0.9-0.2L161.4,71.2z"/>
				<path class="st7" d="M125,63c0,0,5.2-13.9,18.6-4.7c0,0,4.9,6.7,2.4,13.1C145.9,71.3,129.9,72.3,125,63z"/>
				
					<linearGradient id="SVGID_00000005232852744058649050000017048637016197119389_" gradientUnits="userSpaceOnUse" x1="100.7902" y1="29.3076" x2="123.6055" y2="49.1096">
					<stop  offset="0.2743" style="stop-color:#271941"/>
					<stop  offset="0.9876" style="stop-color:#E15236"/>
				</linearGradient>
				<path style="fill:url(#SVGID_00000005232852744058649050000017048637016197119389_);" d="M122.5,48.4l0-1c0,0,0-0.1,0-0.1
					c0-0.3,0.2-2.7,0.4-4c0.1-0.8,1.5-3.3,1.9-3.7c0.4-0.5,1.7-3.9,2.1-4.5c0.3-0.4,0.8-1.4,1.1-2c0.2-0.4,0.2-1,0-1.4
					c-0.4-0.9-1.5-2.2-4-2.8c-3.9-0.9-5.6-0.3-6.3-0.2c-0.6,0.1-6.5-0.2-7-0.3c0,0-0.1,0-0.1,0l-2.8-0.3c-1-0.1-2-0.4-2.9-0.9
					c-1.2-0.6-3.1-1.4-4.2-0.6c-1.6,1.2-1.6,4.6-1.5,4.8c0,0.3,0.7,9.5,3.5,15.3c2.8,5.7,7.1,13.8,13.8,17.1
					c0.1,0.1,0.2,0.1,0.4,0.1l0.8,0.2c0.5-0.1,0.1-0.2,0.2-0.5l0.4-0.9c0,0,0.2-0.9,0.2-0.9l1.8-6l1.8-6.1
					C122,49.6,122.5,48.5,122.5,48.4z"/>
				
					<linearGradient id="SVGID_00000051375638124356858140000010558461204249048209_" gradientUnits="userSpaceOnUse" x1="163.2133" y1="3.7858" x2="181.2934" y2="45.9727">
					<stop  offset="0" style="stop-color:#271941"/>
					<stop  offset="0.9876" style="stop-color:#E15236"/>
				</linearGradient>
				<path style="fill:url(#SVGID_00000051375638124356858140000010558461204249048209_);" d="M158.1,19.9c0,0-0.7-16.3,7.8-19.1
					c0,0,3.7-1.4,11,11.5c7.3,12.9,13.2,26.1,13.2,26.1l-0.4,2.9c0,0-2.1,0.5-2.3,0.2c-0.2-0.3-1-2.1-1.4-2
					c-0.4,0.1-2.7-0.5-2.6-0.9s-19.2-15.9-19.5-15.7s-1.2-0.8-1.3-1.2c0-0.4-1.3,0.9-1.6,1.2c-0.3,0.2-1.9-1.8-1.8-2.2
					c0-0.4-0.1-0.2-0.5,0C158.2,20.6,158.1,19.9,158.1,19.9z"/>
				<path class="st3" d="M101.5,31.9c0,0,5.9-2.6,14.6,5.9s5.9,12.4,5.9,12.4l-4,13.9c0,0-8-4.2-11.2-11.7
					C103.7,45,98.4,34.8,101.5,31.9z"/>
				<path class="st3" d="M162.2,21.5c0,0-0.3-0.3-0.2-1.5c0,0,0.6-18.7,5.2-14.8c0,0,6.4,7.8,9.8,13.4c0,0,4.1,7.3,5.4,11
					c1.5,4,2.7,5.2,2.1,6.6s-1.6,2.8-2.3,2.9s-1.8,0.9-7.4-1.2c-4.7-1.7-4.8-2.4-5.1-2.8c0,0-4.5-5.9-4.7-6.6
					C164.9,27.8,164.2,24.1,162.2,21.5z"/>
				<path class="st2" d="M134.1,58.3c0,0-8.1,2.8-10.9,1.1l8.3,10.6L134.1,58.3z"/>
				<polygon class="st2" points="145.6,68.3 146.4,70.2 143.9,70.5 				"/>
				<g>
					<path class="st10" d="M142.7,70.9c-5.1-0.4-15.8-2.6-12.6-8.8c1.3-2.4,3.8-3.9,6.5-4c3.6-0.1,8.4,1.4,8.8,10.4
						C145.5,69.9,144.2,71,142.7,70.9z"/>
					<path class="st2" d="M142.9,71.1c-0.1,0-0.2,0-0.3,0c-1.8-0.2-10.7-1.1-12.9-5.1c-0.7-1.2-0.6-2.6,0.2-4.1
						c1.3-2.5,3.8-4,6.7-4.1c3.9-0.1,8.6,1.6,9,10.7c0,0.7-0.2,1.4-0.8,1.9C144.3,70.8,143.6,71.1,142.9,71.1z M142.7,70.6
						c0.7,0.1,1.4-0.2,1.9-0.6c0.4-0.4,0.7-1,0.6-1.5c-0.4-8.7-4.8-10.3-8.5-10.2c-2.7,0.1-5.1,1.6-6.3,3.9
						c-0.7,1.4-0.8,2.6-0.2,3.7C131.7,68.7,137.9,70.2,142.7,70.6z"/>
				</g>
				
					<ellipse transform="matrix(0.9958 -9.154615e-02 9.154615e-02 0.9958 -5.3747 12.9372)" class="st2" cx="138.3" cy="65.1" rx="5.2" ry="6.2"/>
				<path class="st2" d="M171.5,56.9c0,0,8.7,2.5,11.7,0.5l-5.4,10.2L171.5,56.9z"/>
				<polygon class="st2" points="161.4,68.3 160.6,70.2 163.2,70.6 				"/>
				<g>
					<path class="st10" d="M164.3,70.9c4.9-0.5,15.1-2.7,12.6-9.2c-1.2-3.2-4.5-4.9-7.9-4.6c-3.3,0.3-7.1,2.3-7.4,11.2
						C161.6,69.8,162.9,71,164.3,70.9z"/>
					<path class="st2" d="M164.1,71.1c-0.7,0-1.3-0.3-1.8-0.7c-0.6-0.6-0.9-1.3-0.9-2.2c0.3-7.2,2.8-10.9,7.6-11.4
						c3.7-0.3,6.9,1.6,8.1,4.7c0.6,1.6,0.5,3.1-0.3,4.4c-2.5,4-10.8,5-12.5,5.2l0,0C164.3,71.1,164.2,71.1,164.1,71.1z M169.8,57.2
						c-0.3,0-0.5,0-0.8,0c-4.6,0.4-6.9,4-7.2,10.9c0,0.7,0.2,1.4,0.7,1.8c0.5,0.4,1.1,0.7,1.7,0.6l0,0c4.4-0.4,10.3-2,12.1-4.9
						c0.7-1.2,0.8-2.5,0.3-4C175.7,59,173,57.2,169.8,57.2z"/>
				</g>
				<ellipse class="st2" cx="168.6" cy="64.1" rx="5.2" ry="6.2"/>
				<path class="st2" d="M151.1,66.8c1.5-1,3.6-1.3,5.2-0.2C154.6,65.7,152.7,65.9,151.1,66.8L151.1,66.8z"/>
				<path class="st11" d="M119.7,59.3"/>
				<path class="st11" d="M119.7,58.3"/>
				<path class="st10" d="M147.5,77.7l1.6,2.2c0.1,0.2,0.4,0.2,0.5,0.1l1.8-1.6c0.1-0.1,0.1-0.1,0.2-0.1l3-0.1c0,0,0,0,0,0l2.5,0
					c0.1,0,0.2,0,0.2,0.1l1.6,1.4c0.2,0.1,0.4,0.1,0.5,0l1.6-2c0.1-0.1,0.1-0.1,0.2-0.1l1.4-0.2c0,0,0,0,0,0l0,0
					c0.4,0,0.4-0.5,0.1-0.6l-1.2-0.4c0,0-0.1,0-0.1,0c-0.9,0-9.2,0.3-9.3,0.3c-0.1,0-3.5,0.1-4.6,0.1c-0.2,0-0.4,0.2-0.3,0.3l0,0.3
					c0,0.1,0.1,0.2,0.2,0.3l0,0C147.4,77.6,147.5,77.6,147.5,77.7z"/>
				<path class="st3" d="M158.3,70.7l15.9-3.5c1.8-0.4,4.3-3.4,7.9-4.9c3.6-1.5,6.1-1.7,7.3-1.6c1.6,0.1,5.8,0.3,7.1,1
					c1.1,0.5-0.6,5.5-0.9,6.3c-2.1,5-3.1,4.7-4.5,6c-0.9,0.9-2,1.8-3,2.3c-0.8,0.3-3,0.2-5.5,0.4c-2.4,0.2-5.9,1.2-8.3,0.5
					c-2.1-0.6-9.8,0-12,0.7c-0.4,0.1-1.4-0.1-1.6,0.2l-0.4,0.5c-0.6,0.8-1.9,0.9-2.6,0.2l0,0c-0.3-0.3-0.8-0.5-1.3-0.5l-4.4,0.1
					c-0.4,0-0.9,0.2-1.2,0.5l-0.1,0.1c-0.8,0.8-2.1,0.6-2.7-0.3l0-0.1c-0.4-0.6-1.7-0.3-2.4-0.2c-1.5,0.2-4.4,0.2-6.2,0.4
					c-2.6,0.3-7.5,0.6-7.7,0.6c-0.2,0-4.5,0.7-8.4,0.6c-0.1,0-2.2,0.4-3.1,0.4c-1.3,0-1.3-0.7-2.2-1.5c-1.1-1-3.4-2.9-3.2-4.5
					c0.1-1.3,3.3-4,4.3-4.8c1.1-1,1.2-1.4,3.9-2.7c0.1-0.1,0.3-0.1,0.4-0.1c1.1-0.2,6-1,7.2,0.1c1.4,1.3,5.5,3,8,3.4
					c2.5,0.4,5.8,0.4,6.9,0.6c1.1,0.2,4,1.1,4.8,0.7c0.8-0.3,6.5-0.5,7.6-0.5C158.1,70.8,158.2,70.8,158.3,70.7z"/>
				<path class="st2" d="M150.6,70.7c0.6-0.3,4.6-1.9,7.4-0.4c0.3,0.1,0.3,0.5,0.1,0.7c-0.8,0.9-2.8,3-3.5,3.5
					c-0.6,0.4-0.1,2.5,0.3,3.5c0.1,0.3-0.1,0.6-0.5,0.6l-0.6,0c-0.3,0-0.5-0.2-0.5-0.5l-0.1-3.1c0-0.1,0-0.2,0-0.3
					c0-0.1,0-0.3-1.4-0.9c-1.9-0.8-2.1-2.4-1.4-3.1C150.4,70.8,150.5,70.8,150.6,70.7z"/>
				<path class="st12" d="M171.7,85"/>
				
					<linearGradient id="SVGID_00000062889059202948715190000011412956115407957658_" gradientUnits="userSpaceOnUse" x1="185.6883" y1="80.6326" x2="185.2579" y2="93.9774">
					<stop  offset="1.929099e-02" style="stop-color:#EC7742"/>
					<stop  offset="0.6282" style="stop-color:#271941"/>
				</linearGradient>
				<path style="fill:url(#SVGID_00000062889059202948715190000011412956115407957658_);" d="M184.2,85.3c1.1,0.2,2.5,0,3.1,0.8
					c0.6,0.7-0.3,0.5,1-0.1c1.3-0.6,3.4-0.1,4.4,0.6c1.9,1.3,2.2,1.5,2.5,2.2c0.5,1,0.5,2.6,0.1,3.6c-0.6,1.5-1.2,2.3-4.2,3.2
					c-1.1,0.2-1.7,0.2-2.5,0.3c-0.6,0.1-1.7,0.1-2.3,0.2c-2.5,0.5-6-0.1-8.5-0.9c-2.3-0.7-3.9-3.4-2.4-6.3c1-2.2,4.8-3.3,7.2-3.5
					C183,85.3,183.2,85.2,184.2,85.3z"/>
				
					<linearGradient id="SVGID_00000013876984799362351410000010137455765960858795_" gradientUnits="userSpaceOnUse" x1="126.3472" y1="82.1643" x2="125.9167" y2="95.5091">
					<stop  offset="1.929099e-02" style="stop-color:#EC7742"/>
					<stop  offset="0.5437" style="stop-color:#271941"/>
				</linearGradient>
				<path style="fill:url(#SVGID_00000013876984799362351410000010137455765960858795_);" d="M124.6,86.5c0.6,0.3,1.4-1.5,4.8,0.4
					c0.9,0.5,1.9-0.5,2.9-0.2c1.2,0.3,3.4,3,2.6,4.9c-0.6,1.5-1.2,2.5-2.6,3.2c-0.5,0.3-1.1,0.4-1.7,0.6c-0.6,0.2-1.2,0.3-1.8,0.5
					c-1.9,0.5-3.9,1-5.8,0.8c-3.9-0.4-7.5-4.5-5.2-8.4C119.5,85.2,121.9,84.9,124.6,86.5z"/>
				<path class="st15" d="M165.4,55c-1.6-0.5-2.3-2.3-1.5-3.8c1.4-2.5,4.3-5.6,8.8-3.2C178.7,51.2,171,56.7,165.4,55z"/>
				<path class="st3" d="M141.4,55.3c1.4-0.9,1.5-2.9,0.3-4.1c-2.1-1.9-5.8-4.1-9.4-0.4C127.6,55.7,136.5,58.6,141.4,55.3z"/>
				<path class="st2" d="M159.5,71.5c1.7,1.2,2.6,3.5,1.3,5.3C161.9,74.9,161.1,72.8,159.5,71.5L159.5,71.5z"/>
				<path class="st2" d="M148.5,72.6c-1.4,1.5-2,3.5-0.6,5.2C146.3,76.2,146.9,73.9,148.5,72.6L148.5,72.6z"/>
				<g>
					<g>
						<path class="st0" d="M205.1,98.8H97v-4.1h108.1V98.8z"/>
					</g>
				</g>
				<circle class="st10" cx="172" cy="61" r="1.5"/>
				<circle class="st10" cx="141.8" cy="62.3" r="1.5"/>
			</g>
			<path class="st16" d="M72.1,159.5"/>
			<g>
				<path class="st0" d="M2.2,121.2c0-4.5-0.3-7.3-1.1-9.7c1.1,0.1,1.9,0.1,2.6,0.1c1.7,0,3.3,0,4.3-0.1c-0.3,3-0.5,5.7-0.5,9.9v6
					c2.7,0.1,7.9,0.2,11.3,0.2c2.7,0,8.2-0.1,11.7-0.2v-5.5c0-5-0.3-8-1.1-10.3c1.1,0.1,2.3,0.1,3.5,0.1c1.1,0,2.3,0,3.5-0.1
					c-0.5,3.4-0.5,6.2-0.5,8.8v19c0,5,0.3,8,1.1,10.3c-1.1-0.1-2.3-0.1-3.6-0.1c-1.3,0-2.6,0.1-3.7,0.1c0.5-3.1,0.8-6.3,0.8-10.4
					V131c-4.3-0.1-8-0.2-11.8-0.2c-3.4,0-6.9,0.1-11.2,0.2v8.2c0,5,0.3,8,1.1,10.3c-0.7-0.1-2.2-0.1-3.6-0.1c-1.4,0-2.9,0.1-3.7,0.1
					c0.4-3.1,0.8-4.1,0.8-10.4V121.2z"/>
				<path class="st0" d="M71,135.3c-2.4-0.1-4.7-0.1-7.1-0.1c-2.4,0-4.8,0.1-7.1,0.1l-2.7,7.1c-0.3,0.8-0.9,2.6-0.9,4.7
					c0,0.8,0.1,1.8,0.3,2.6c-1.2-0.1-2.4-0.1-3.6-0.1s-2.5,0.1-3.7,0.1l-0.2-0.3c1.5-2.7,3.1-5.5,4.5-9l9.5-22.3
					c1.4-3.2,1.8-4.4,2.4-6.8c1.3-0.1,3.7-0.5,5-0.8c0.2,1.7,0.7,3.2,1.7,5.6l9.5,24.1c2,5,3.6,7.8,4.7,9.5
					c-1.1-0.1-2.8-0.1-3.9-0.1c-1.5,0-2.5,0.1-4,0.2c-0.5-3-1.3-5.8-2.5-8.9L71,135.3z M64.2,116.4l-6.2,15.7
					c1.9,0.1,3.9,0.1,5.9,0.1c2,0,3.9,0,5.9-0.1L64.2,116.4z"/>
				<path class="st0" d="M105,127.7c3.1,0,5.7-0.2,7.6-0.4l0.5,0.4c-0.6,1.3-1.1,2.5-1.5,3.8c-2.5-0.3-5-0.4-7.5-0.4h-4.7v9.9
					c0,4.4,0.8,5.6,6.6,5.6c3.7,0,7.3-0.2,10.3-2.9l0.7,0.3c-0.6,1.9-1.1,3.8-1.4,5.9c-5.1-0.2-10.1-0.3-14.5-0.3
					c-3.6,0-5.9,0.1-7.9,0.1c0.4-2.6,0.8-6.2,0.8-10.4v-18c0-4.5-0.3-7.3-1.1-9.7c1.1,0.1,2.8,0.1,3.5,0.1h10.5c2.7,0,4.8-0.1,8-0.2
					c-0.7,1.6-1.4,3.4-1.9,5.4l-0.7,0.1c-2-2.2-5.3-2.5-8.5-2.5c-0.9,0-2.5,0.1-4.2,0.2c-0.1,2-0.2,4.5-0.2,6.8v6.3H105z"/>
				<path class="st0" d="M140.2,149.5c-1.4,0-2.9,0.1-3.7,0.1c0.6-3,0.9-6,0.9-10.4v-18c0-2.2-0.1-4.5-0.2-6.8h-3.7
					c-3.5,0-7.3,0.3-9.9,2.7l-0.7-0.1l0.6-5.5c4.1,0.1,7.3,0.2,10.1,0.2h12.2c3.4,0,5-0.1,12.1-0.2c-0.6,1.7-1.1,3.5-1.5,5.5
					l-0.7,0.1c-2.6-2.5-6.5-2.6-10.3-2.6H143c-0.2,2.3-0.2,4.6-0.2,7v17.9c0,5,0.3,8,1,10.3C142.9,149.5,141.5,149.5,140.2,149.5z"
					/>
				<path class="st0" d="M167.1,121.2c0-4.5-0.3-7.3-1.1-9.7c1.1,0.1,1.9,0.1,2.6,0.1c1.7,0,3.3,0,4.3-0.1c-0.3,3-0.5,5.7-0.5,9.9v6
					c2.7,0.1,7.9,0.2,11.3,0.2c2.7,0,8.2-0.1,11.7-0.2v-5.5c0-5-0.3-8-1.1-10.3c1.1,0.1,2.3,0.1,3.5,0.1c1.1,0,2.3,0,3.5-0.1
					c-0.5,3.4-0.5,6.2-0.5,8.8v19c0,5,0.3,8,1.1,10.3c-1.1-0.1-2.3-0.1-3.6-0.1c-1.3,0-2.6,0.1-3.7,0.1c0.5-3.1,0.8-6.3,0.8-10.4
					V131c-4.3-0.1-8-0.2-11.8-0.2c-3.4,0-6.9,0.1-11.2,0.2v8.2c0,5,0.3,8,1.1,10.3c-0.7-0.1-2.2-0.1-3.6-0.1c-1.4,0-2.9,0.1-3.7,0.1
					c0.4-3.1,0.8-4.1,0.8-10.4V121.2z"/>
				<path class="st0" d="M224,111.4c0.9,1.5,1.4,2.7,3.8,5.6l15.5,19.2c1.3,1.5,2.6,3.2,4.1,5c-0.1-1-0.1-1.9-0.1-4v-11.6
					c0-4.9-0.2-9.7-1.4-14.1c0.7,0.1,2.2,0.1,3.6,0.1c1,0,2.1,0,2.9-0.1c-0.7,2.2-0.7,10-0.7,17.4v14.3c0,2.3,0.2,4.9,0.5,7H250
					c-0.9,0-1.8,0-2.4,0.1c-0.9-1.3-2-3-3.4-4.7l-20.4-24.8l-2.6-3.2c0.1,0.7,0.1,1.5,0.1,2.4v18.9c0,4.4,0.2,7.6,1.3,10.8
					c-1-0.1-2.2-0.1-3.3-0.1c-1.1,0-2.3,0.1-3.1,0.1c0.7-3.5,0.8-5.8,0.8-9.5v-18.8c0-2.7-0.2-7.6-1.1-9.8c1.4,0.1,2.2,0.1,3.5,0.1
					C221.2,111.5,223.2,111.5,224,111.4z"/>
				<path class="st0" d="M286.4,135.3c-2.4-0.1-4.7-0.1-7.1-0.1c-2.4,0-4.8,0.1-7.1,0.1l-2.7,7.1c-0.3,0.8-0.9,2.6-0.9,4.7
					c0,0.8,0.1,1.8,0.3,2.6c-1.2-0.1-2.4-0.1-3.6-0.1c-1.2,0-2.5,0.1-3.7,0.1l-0.2-0.3c1.5-2.7,3.1-5.5,4.5-9l9.5-22.3
					c1.4-3.2,1.8-4.4,2.4-6.8c1.3-0.1,3.7-0.5,5-0.8c0.2,1.7,0.7,3.2,1.7,5.6l9.5,24.1c2,5,3.6,7.8,4.7,9.5
					c-1.1-0.1-2.8-0.1-3.9-0.1c-1.5,0-2.5,0.1-4,0.2c-0.5-3-1.3-5.8-2.5-8.9L286.4,135.3z M279.6,116.4l-6.2,15.7
					c1.9,0.1,3.9,0.1,5.9,0.1c2,0,3.9,0,5.9-0.1L279.6,116.4z"/>
			</g>
		</g>
		<g>
			<g>
				
					<linearGradient id="SVGID_00000026152741253325582850000003772176997771870131_" gradientUnits="userSpaceOnUse" x1="-818.6561" y1="-3439.1824" x2="-809.916" y2="-3439.1824" gradientTransform="matrix(6.533667e-03 1 -1 6.533667e-03 -3180.73 944.5341)">
					<stop  offset="0" style="stop-color:#F87B39"/>
					<stop  offset="1" style="stop-color:#E15236"/>
				</linearGradient>
				<path style="fill:url(#SVGID_00000026152741253325582850000003772176997771870131_);" d="M256.7,103.5c1.4,0.4,0.1,4.3-1.5,5.5
					c-1.3,1-3.5,3.7-5.7,3c-1.4-0.4-0.7-1.6,0.1-3.4C250.3,107.2,254,102.7,256.7,103.5z"/>
				<path class="st0" d="M250.3,113c-0.3,0-0.6,0-0.9-0.1c-0.6-0.2-1-0.5-1.2-0.9c-0.4-0.9,0-1.8,0.6-3.1l0.2-0.5
					c0.6-1.4,4.7-6.7,8.1-5.6l0,0c0.3,0.1,0.9,0.4,1.1,1.4c0.3,1.6-0.9,4.5-2.3,5.6c-0.2,0.2-0.6,0.5-0.9,0.8
					C253.7,111.5,252.1,113,250.3,113z M249.6,111.2c0,0,0.1,0,0.2,0.1c1.3,0.4,2.9-1,4-2.1c0.4-0.3,0.7-0.6,1-0.8
					c1.2-0.9,2-3.6,1.7-4.1c-2.1-0.6-5.5,3.4-6.1,4.7l-0.2,0.5C249.9,110.1,249.5,111,249.6,111.2
					C249.6,111.2,249.6,111.2,249.6,111.2z M256.5,104.3C256.5,104.3,256.5,104.3,256.5,104.3L256.5,104.3z"/>
			</g>
			<g>
				
					<linearGradient id="SVGID_00000158731340157463783920000000652199273020859835_" gradientUnits="userSpaceOnUse" x1="-820.5048" y1="-3433.6418" x2="-810.8671" y2="-3433.6418" gradientTransform="matrix(6.533667e-03 1 -1 6.533667e-03 -3180.73 944.5341)">
					<stop  offset="0" style="stop-color:#F87B39"/>
					<stop  offset="1" style="stop-color:#E15236"/>
				</linearGradient>
				<path style="fill:url(#SVGID_00000158731340157463783920000000652199273020859835_);" d="M246.4,101.8c1.7-0.6,3.6,0.9,3.7,2.9
					c0.1,1.6,0.1,4.8-1.6,6.3c-1.1,0.9-1.3-0.2-2.4-1.9C245.2,107.7,243.7,102.7,246.4,101.8z"/>
				<path class="st0" d="M247.8,112.1c-0.1,0-0.1,0-0.2,0c-0.8-0.1-1.1-0.8-1.6-1.7c-0.2-0.3-0.3-0.6-0.6-0.9
					c-0.8-1.2-1.8-4.4-1.1-6.5c0.3-0.9,0.9-1.6,1.8-1.9l0,0c1-0.4,2-0.2,3,0.4c1.1,0.7,1.8,1.9,1.9,3.2c0.2,3.3-0.4,5.7-1.9,6.9
					C248.9,111.7,248.4,112.1,247.8,112.1z M247.2,102.4c-0.2,0-0.3,0-0.5,0.1l0,0c-0.4,0.2-0.7,0.4-0.8,0.9
					c-0.5,1.5,0.3,4.2,0.9,5.1c0.2,0.4,0.4,0.7,0.6,1c0.2,0.3,0.4,0.7,0.5,0.8c0,0,0.1-0.1,0.1-0.1c0.7-0.6,1.6-2.1,1.3-5.6
					c0-0.8-0.5-1.6-1.1-2C248,102.6,247.6,102.4,247.2,102.4z"/>
			</g>
			<g>
				
					<linearGradient id="SVGID_00000176030669051729879670000007646388413499823031_" gradientUnits="userSpaceOnUse" x1="-816.1105" y1="-3429.4377" x2="-808.8597" y2="-3429.4377" gradientTransform="matrix(6.533667e-03 1 -1 6.533667e-03 -3180.73 944.5341)">
					<stop  offset="0" style="stop-color:#F87B39"/>
					<stop  offset="1" style="stop-color:#E15236"/>
				</linearGradient>
				<path style="fill:url(#SVGID_00000176030669051729879670000007646388413499823031_);" d="M238.7,108.4c0.4-1.8,2.1-3.3,4.7-1.5
					c1.3,0.9,4.3,3.1,4.7,5.3c0.2,1.4-0.9,1-2.9,1.1C243.5,113.3,238.1,111.1,238.7,108.4z"/>
				<path class="st0" d="M246.8,114.1c-0.2,0-0.4,0-0.5,0c-0.3,0-0.7,0-1.1,0c0,0,0,0-0.1,0c-1.5,0-4.8-1.3-6.4-3.1
					c-0.7-0.9-1-1.8-0.8-2.8l0,0c0.3-1.3,1.1-2.3,2.1-2.7c0.8-0.3,2.1-0.5,3.8,0.7c1.4,1,4.6,3.2,5,5.9c0,0.2,0.2,0.9-0.3,1.5
					C248.1,114,247.5,114.1,246.8,114.1z M245.5,112.4c0.3,0,0.5,0,0.7,0c0.3,0,0.8,0,1,0c0,0,0-0.1,0-0.1c-0.3-2-3.2-4-4.3-4.8
					c-0.9-0.6-1.6-0.8-2.3-0.5c-0.6,0.2-1,0.8-1.2,1.6c-0.1,0.4,0.1,0.9,0.5,1.4c1.2,1.5,4.1,2.5,5.1,2.5c0,0,0,0,0,0
					C245.2,112.4,245.4,112.4,245.5,112.4z"/>
			</g>
			<g>
				
					<linearGradient id="SVGID_00000167383483172365854030000010988533453791874180_" gradientUnits="userSpaceOnUse" x1="-808.8701" y1="-3429.3535" x2="-801.647" y2="-3429.3535" gradientTransform="matrix(6.533667e-03 1 -1 6.533667e-03 -3180.73 944.5341)">
					<stop  offset="0" style="stop-color:#F87B39"/>
					<stop  offset="1" style="stop-color:#E15236"/>
				</linearGradient>
				<path style="fill:url(#SVGID_00000167383483172365854030000010988533453791874180_);" d="M239.7,120.1c-1.6-1-1.2-3,1.4-4.5
					c1.4-0.8,4.3-2.4,6.2-2.3c1.3,0.1-0.1,2.2-1.1,4.1C245.4,118.7,242.2,121.6,239.7,120.1z"/>
				<path class="st0" d="M241.3,121.3c-0.7,0-1.4-0.2-2-0.6c-0.9-0.5-1.3-1.4-1.3-2.3c0-1.3,1-2.6,2.7-3.6c2.9-1.7,5.1-2.5,6.7-2.4
					c0.7,0.1,1,0.4,1.1,0.7c0.5,0.9-0.2,2.1-1.2,3.9c-0.1,0.2-0.3,0.5-0.4,0.7c-0.6,1.1-2.5,2.9-4.5,3.5
					C242,121.3,241.6,121.3,241.3,121.3z M247,114.1c-1.2,0-3.1,0.8-5.5,2.2c-1.2,0.7-1.9,1.6-1.9,2.3c0,0.3,0.2,0.6,0.6,0.9l0,0
					c0.5,0.3,1.1,0.4,1.8,0.2c1.5-0.4,3-1.8,3.5-2.7c0.1-0.2,0.3-0.5,0.4-0.7C246.2,115.6,246.8,114.6,247,114.1z"/>
			</g>
			<g>
				
					<linearGradient id="SVGID_00000160164753018077285600000010412168502613386162_" gradientUnits="userSpaceOnUse" x1="-808.8566" y1="-3435.5859" x2="-798.2354" y2="-3435.5859" gradientTransform="matrix(6.533667e-03 1 -1 6.533667e-03 -3180.73 944.5341)">
					<stop  offset="0" style="stop-color:#F87B39"/>
					<stop  offset="1" style="stop-color:#E15236"/>
				</linearGradient>
				<path style="fill:url(#SVGID_00000160164753018077285600000010412168502613386162_);" d="M249.9,123.8c-1.8,0.4-2.3-0.7-2.7-3.8
					c-0.2-1.6,0.3-4.8,1.1-6.5c0.6-1.1,2.6,1.6,3.2,2.9C252.3,118.3,252,123.3,249.9,123.8z"/>
				<path class="st0" d="M249.3,124.7c-0.5,0-0.9-0.1-1.3-0.4c-1-0.7-1.3-2.1-1.6-4.2c-0.2-1.8,0.3-5.1,1.2-7
					c0.2-0.5,0.7-0.7,1.2-0.7c1.5,0.1,3.1,2.9,3.5,3.7c0.7,1.6,0.6,4.9-0.4,6.8c-0.6,1.1-1.3,1.5-1.8,1.6l0,0
					C249.8,124.6,249.5,124.7,249.3,124.7z M248.9,114.2c-0.7,1.6-1.1,4.3-0.9,5.7c0.1,0.7,0.3,2.7,0.9,3.1c0.1,0,0.2,0.2,0.8,0l0,0
					c0.3-0.1,0.6-0.5,0.7-0.8c0.8-1.5,0.8-4.3,0.3-5.5C250.4,115.8,249.4,114.6,248.9,114.2z"/>
			</g>
			<g>
				
					<linearGradient id="SVGID_00000042712765367257697480000004096291500495349133_" gradientUnits="userSpaceOnUse" x1="-812.0776" y1="-3441.9636" x2="-805.3454" y2="-3441.9636" gradientTransform="matrix(6.533667e-03 1 -1 6.533667e-03 -3180.73 944.5341)">
					<stop  offset="0" style="stop-color:#F87B39"/>
					<stop  offset="1" style="stop-color:#E15236"/>
				</linearGradient>
				<path style="fill:url(#SVGID_00000042712765367257697480000004096291500495349133_);" d="M261.7,112.9c0.4,2.8-2.5,3.9-5.2,3.8
					c-1.7,0-4-0.8-6.1-2.6c-1.1-0.9,0.1-2,1.8-3C256.5,108.8,261.3,110.3,261.7,112.9z"/>
				<path class="st0" d="M256.7,117.5c-0.1,0-0.2,0-0.2,0c-2.1,0-4.5-1-6.6-2.7c-0.7-0.5-0.8-1.1-0.7-1.5c0.1-0.9,0.9-1.7,2.7-2.8
					c2.6-1.5,5.9-1.8,8.2-0.6c1.3,0.7,2.2,1.7,2.4,2.9l0,0c0.2,1.2-0.1,2.2-0.8,3C260.7,116.9,258.9,117.5,256.7,117.5z
					 M250.8,113.4c0,0,0,0.1,0.1,0.1c1.8,1.5,3.8,2.3,5.6,2.4c1.7,0,3.2-0.4,3.9-1.2c0.4-0.4,0.5-1,0.4-1.7
					c-0.1-0.6-0.6-1.2-1.5-1.7c-1.4-0.7-4.1-1-6.7,0.6C250.9,112.9,250.8,113.4,250.8,113.4C250.8,113.4,250.8,113.4,250.8,113.4z"
					/>
			</g>
			<path class="st0" d="M250.1,114.9l0.6-0.3l-0.2-1.1l0.1-1l0.3-0.6l-1.1-0.3l-0.5-0.3l-0.2-1.1l-0.6,0.1l-1.1,0.2l0,0.7l0.1,0.8
				l-0.3,1.3l0.3,0.2c0,0,0.3,0.3,0.3,0.3s0.2,0.1,0.3,0.1c0.1,0,0.7,0,0.7,0l0.2,0.3l0.4,0.4l0.4,0.3L250.1,114.9z"/>
			<g>
				
					<linearGradient id="SVGID_00000001666186851145475170000005869937091514227336_" gradientUnits="userSpaceOnUse" x1="-812.2453" y1="-3420.1689" x2="-808.6866" y2="-3420.1689" gradientTransform="matrix(6.533667e-03 1 -1 6.533667e-03 -3180.73 944.5341)">
					<stop  offset="0" style="stop-color:#F87B39"/>
					<stop  offset="1" style="stop-color:#E15236"/>
				</linearGradient>
				<path style="fill:url(#SVGID_00000001666186851145475170000005869937091514227336_);" d="M230.7,111.2c0,0,0.6-3.3,6.8,0.7
					C237.5,111.9,231.4,116,230.7,111.2z"/>
				<path class="st0" d="M233.1,114.3c-0.5,0-0.9-0.1-1.4-0.3c-0.7-0.3-1.6-1-1.8-2.7l0-0.1l0-0.1c0-0.1,0.2-1.2,1.4-1.7
					c1.5-0.7,3.7,0,6.6,1.8l1,0.7l-1,0.7C237.6,112.8,235.2,114.3,233.1,114.3z M231.5,111.3c0.2,1,0.7,1.2,0.8,1.3
					c0.9,0.4,2.4-0.1,3.5-0.7c-2.5-1.3-3.5-1.2-3.9-1C231.7,111,231.6,111.2,231.5,111.3z"/>
			</g>
			<g>
				
					<linearGradient id="SVGID_00000046318287911337229930000016133156433583420860_" gradientUnits="userSpaceOnUse" x1="-802.4125" y1="-3443.5933" x2="-797.6126" y2="-3443.5933" gradientTransform="matrix(6.533667e-03 1 -1 6.533667e-03 -3180.73 944.5341)">
					<stop  offset="0" style="stop-color:#F87B39"/>
					<stop  offset="1" style="stop-color:#E15236"/>
				</linearGradient>
				<path style="fill:url(#SVGID_00000046318287911337229930000016133156433583420860_);" d="M259.4,124.1c0,0,2.9-3.3-4.2-4.4
					C255.2,119.7,254.8,126,259.4,124.1z"/>
				<path class="st0" d="M257.8,125.2c-0.6,0-1.2-0.2-1.7-0.5c-1.9-1.3-1.8-4.7-1.7-5.1l0.1-0.9l0.9,0.1c3.1,0.5,4.8,1.4,5.3,2.9
					c0.4,1.2-0.2,2.4-0.7,2.9l-0.1,0.1l-0.2,0.1C259,125.1,258.4,125.2,257.8,125.2z M256,120.6c0.1,1,0.3,2.3,1,2.8
					c0.4,0.3,1,0.3,1.8,0c0.1-0.2,0.4-0.7,0.2-1.1C259,121.9,258.4,121.2,256,120.6z"/>
			</g>
		</g>
		<ellipse transform="matrix(0.818 -0.5752 0.5752 0.818 -8.0048 114.3374)" class="st25" cx="176.7" cy="69.8" rx="6.2" ry="3.5"/>
		
			<ellipse transform="matrix(0.2932 -0.9561 0.9561 0.2932 24.7755 176.9709)" class="st25" cx="132.1" cy="71.7" rx="3.5" ry="6.2"/>
	</g>
</g>
</svg>
